# xmcd
#
# Track frame offsets:
#	150
#	20060
#	38815
#	52905
#	70727
#	86775
#	101910
#	120477
#	138322
#	154107
#	172772
#	190242
#	205165
#	220590
#	245445
#	262715
#	281283
#	298613
#	315783
#	333375
#
# Disc length: 4662 seconds
# Revision: 0
# Processed by: cddbd v1.5.2PL0 Copyright (c) Steve Scherf et al.
# Submitted via: dBpowerAMP V12.0
#
DISCID=10123414
DTITLE=Magneto - La Historia de Magneto
DYEAR=2007
DGENRE=Latin
TTITLE0=Vuela, Vuela (Voyage, Voyage)
TTITLE1=Para Siempre
TTITLE2=Mira, Mira, Mira (Yummy, Yummy)
TTITLE3=La Puerta del Colegio
TTITLE4=Cuarenta Grados (Tudo a Ver Com Teu Olhar)
TTITLE5=Cambiendo el Destino
TTITLE6=Sugar Sugar
TTITLE7=Mi Amada
TTITLE8=La Salsa del Destino
TTITLE9=Sueño por sueño
TTITLE10=Tu Libertad
TTITLE11=Eva María
TTITLE12=Corazón Perfecto
TTITLE13=Siglo XX (American Pie)
TTITLE14=Malherido
TTITLE15=Tu Mejor Amigo (Proud Mary)
TTITLE16=Las Palabras (con Angélica Vale)
TTITLE17=Oyeme
TTITLE18=Obsesionado (Ando Parado)
TTITLE19=Adiós
EXTD=
EXTT0=
EXTT1=
EXTT2=
EXTT3=
EXTT4=
EXTT5=
EXTT6=
EXTT7=
EXTT8=
EXTT9=
EXTT10=
EXTT11=
EXTT12=
EXTT13=
EXTT14=
EXTT15=
EXTT16=
EXTT17=
EXTT18=
EXTT19=
PLAYORDER=
